<svg width="24" height="24" viewBox="0 0 24 24" fill="none" xmlns="http://www.w3.org/2000/svg">
<g clip-path="url(#clip0_1221_10)">
<path fill-rule="evenodd" clip-rule="evenodd" d="M5.58859 1.88051C4.80906 2.30512 4.0939 2.83846 3.46459 3.46451C2.05716 4.87537 1.13659 6.71994 0.709732 8.91937C4.54116 9.25537 8.0983 8.64508 11.1206 7.58222C9.59087 5.39962 7.72351 3.47439 5.58859 1.8788V1.88051ZM0.452589 11.0468C0.435446 11.3588 0.428589 11.6777 0.428589 11.9999C0.428589 14.7239 1.01145 17.0657 2.18059 18.9205C5.76002 15.7028 9.32916 13.7845 12.9343 12.8057C13.2223 12.7268 13.512 12.6548 13.8017 12.5879C13.3903 11.5422 12.8932 10.4845 12.2932 9.43365C8.51603 10.8478 4.47036 11.399 0.452589 11.0468ZM3.52459 20.5937C5.54745 22.5805 8.44802 23.5714 12 23.5714C13.0885 23.5775 14.1747 23.4724 15.2417 23.2577C15.2417 23.2062 15.2469 23.1548 15.2537 23.1034C15.5709 20.9382 15.4509 17.9074 14.496 14.6279C14.1617 14.7017 13.8292 14.7822 13.4966 14.8731C10.2223 15.7645 6.91545 17.5234 3.52459 20.5937ZM17.4737 22.5719C18.6168 22.0982 19.6567 21.4065 20.5354 20.5354C22.0869 18.9822 23.0452 16.9011 23.4069 14.3982C21.108 14.0914 18.8537 14.0125 16.6234 14.2731C17.4926 17.3759 17.6863 20.2868 17.4737 22.5702V22.5719ZM23.5714 12.2571V11.9999C23.5714 8.67422 22.7023 5.92108 20.9623 3.92394C19.5154 5.5268 17.2046 7.24451 14.2869 8.60394C14.9537 9.80051 15.5023 11.0057 15.9463 12.1971C18.4937 11.8542 21.0326 11.9279 23.5697 12.2588L23.5714 12.2571ZM19.3766 2.48222C17.4532 1.11422 14.952 0.42851 12 0.42851C10.6069 0.414431 9.21844 0.592096 7.87373 0.95651C9.9092 2.62381 11.6898 4.57996 13.1589 6.7628C15.924 5.50794 18.0857 3.91708 19.3749 2.48394L19.3766 2.48222Z" fill="#5CE6E6"/>
</g>
<defs>
<clipPath id="clip0_1221_10">
<rect width="24" height="24" fill="white"/>
</clipPath>
</defs>
</svg>
