<svg width="24" height="24" viewBox="0 0 24 24" fill="none" xmlns="http://www.w3.org/2000/svg">
<path d="M11.9953 1.00001C9.38482 0.997811 6.85889 1.92523 4.87007 3.6161C2.88124 5.30697 1.5595 7.65078 1.14167 10.2276C0.723833 12.8044 1.23722 15.4457 2.58983 17.6784C3.94244 19.9111 6.04589 21.5892 8.52327 22.412C9.07127 22.507 9.24527 22.185 9.24527 21.895C9.24527 21.632 9.25127 20.904 9.24527 19.985C6.18827 20.647 5.55727 18.537 5.55727 18.537C5.3555 17.8729 4.92275 17.3028 4.33727 16.93C3.34027 16.248 4.41227 16.261 4.41227 16.261C4.76042 16.3089 5.09302 16.4357 5.3847 16.6317C5.67637 16.8277 5.91941 17.0878 6.09527 17.392C6.24408 17.663 6.44513 17.9019 6.68678 18.0947C6.92844 18.2876 7.20592 18.4306 7.50319 18.5156C7.80046 18.6006 8.11163 18.6258 8.41871 18.5899C8.72579 18.5539 9.0227 18.4574 9.29227 18.306C9.34271 17.7505 9.58989 17.2313 9.98927 16.842C7.55027 16.563 4.98527 15.622 4.98527 11.41C4.96977 10.3184 5.37514 9.26271 6.11727 8.46201C5.78103 7.5148 5.8193 6.47493 6.22427 5.55501C6.22427 5.55501 7.14827 5.26001 9.24427 6.68301C11.0453 6.189 12.9462 6.189 14.7473 6.68301C16.8493 5.26101 17.7653 5.55501 17.7653 5.55501C18.1703 6.47501 18.2093 7.51501 17.8743 8.46201C18.6166 9.26324 19.0213 10.3199 19.0043 11.412C19.0043 15.635 16.4353 16.562 13.9883 16.832C14.2514 17.0962 14.4546 17.4138 14.5844 17.7633C14.7141 18.1128 14.7673 18.4862 14.7403 18.858V21.899C14.7403 22.193 14.9173 22.518 15.4753 22.411C17.9526 21.5874 20.0556 19.9086 21.4076 17.6753C22.7596 15.4421 23.272 12.8003 22.8532 10.2235C22.4344 7.64674 21.1117 5.3033 19.122 3.61315C17.1324 1.923 14.6059 0.996621 11.9953 1.00001Z" fill="#5CE6E6"/>
</svg>
