<svg width="28" height="28" viewBox="0 0 28 28" fill="none" xmlns="http://www.w3.org/2000/svg">
<path d="M13.9968 1.20965e-05C10.6738 -0.00285939 7.45828 1.20878 4.92653 3.41784C2.39479 5.6269 0.712233 8.68901 0.180339 12.0555C-0.351556 15.422 0.301973 18.8729 2.02383 21.7898C3.74568 24.7067 6.42334 26.8991 9.57701 27.9741C10.2746 28.0982 10.4961 27.6775 10.4961 27.2986C10.4961 26.955 10.5037 26.0039 10.4961 24.8033C6.60459 25.6681 5.80134 22.9115 5.80134 22.9115C5.54449 22.0438 4.9936 21.2991 4.2483 20.812C2.97913 19.921 4.34377 19.938 4.34377 19.938C4.78695 20.0005 5.21035 20.1662 5.58165 20.4223C5.95295 20.6784 6.26234 21.0181 6.48621 21.4156C6.67564 21.7697 6.93156 22.0817 7.23919 22.3337C7.54681 22.5856 7.90004 22.7725 8.27847 22.8836C8.65689 22.9946 9.053 23.0276 9.4439 22.9806C9.83481 22.9336 10.2128 22.8075 10.5559 22.6097C10.6201 21.884 10.9348 21.2057 11.4432 20.697C8.3384 20.3325 5.07319 19.1032 5.07319 13.6003C5.05346 12.1742 5.56949 10.7949 6.51421 9.74886C6.08618 8.51137 6.1349 7.15281 6.65042 5.95096C6.65042 5.95096 7.82666 5.56556 10.4948 7.42466C12.7876 6.77925 15.2073 6.77925 17.5001 7.42466C20.1759 5.56686 21.3419 5.95096 21.3419 5.95096C21.8575 7.15291 21.9071 8.51164 21.4807 9.74886C22.4257 10.7956 22.9409 12.1761 22.9192 13.6029C22.9192 19.1201 19.6489 20.3312 16.5339 20.684C16.8688 21.0291 17.1275 21.4441 17.2927 21.9007C17.4578 22.3573 17.5255 22.8451 17.4912 23.3309V27.3038C17.4912 27.6879 17.7165 28.1125 18.4268 27.9728C21.5804 26.8968 24.2575 24.7034 25.9786 21.7858C27.6996 18.8681 28.352 15.4167 27.8188 12.0502C27.2857 8.68374 25.6018 5.62211 23.0691 3.41399C20.5363 1.20587 17.3201 -0.00441392 13.9968 1.20965e-05Z" fill="#5CE6E6"/>
</svg>
