<svg width="24" height="24" viewBox="0 0 24 24" fill="none" xmlns="http://www.w3.org/2000/svg">
<path d="M11.996 1.28394C9.38556 1.28175 6.85962 2.20917 4.8708 3.90003C2.88197 5.5909 1.56023 7.93471 1.1424 10.5115C0.724566 13.0883 1.23795 15.7297 2.59056 17.9624C3.94317 20.1951 6.04662 21.8731 8.52401 22.6959C9.07201 22.7909 9.24601 22.4689 9.24601 22.1789C9.24601 21.9159 9.25201 21.1879 9.24601 20.2689C6.18901 20.9309 5.55801 18.8209 5.55801 18.8209C5.35624 18.1568 4.92349 17.5868 4.33801 17.2139C3.34101 16.5319 4.41301 16.5449 4.41301 16.5449C4.76115 16.5928 5.09375 16.7196 5.38543 16.9156C5.6771 17.1116 5.92015 17.3717 6.09601 17.6759C6.24482 17.947 6.44586 18.1858 6.68752 18.3787C6.92917 18.5715 7.20666 18.7146 7.50393 18.7996C7.8012 18.8845 8.11236 18.9098 8.41944 18.8738C8.72652 18.8378 9.02343 18.7413 9.29301 18.5899C9.34344 18.0345 9.59062 17.5153 9.99001 17.1259C7.55101 16.8469 4.98601 15.9059 4.98601 11.6939C4.97051 10.6023 5.37588 9.54664 6.11801 8.74594C5.78176 7.79874 5.82004 6.75887 6.22501 5.83894C6.22501 5.83894 7.14901 5.54394 9.24501 6.96694C11.0461 6.47294 12.9469 6.47294 14.748 6.96694C16.85 5.54494 17.766 5.83894 17.766 5.83894C18.171 6.75894 18.21 7.79894 17.875 8.74594C18.6173 9.54718 19.0221 10.6038 19.005 11.6959C19.005 15.9189 16.436 16.8459 13.989 17.1159C14.2521 17.3801 14.4554 17.6977 14.5851 18.0473C14.7148 18.3968 14.768 18.7701 14.741 19.1419V22.1829C14.741 22.4769 14.918 22.8019 15.476 22.6949C17.9533 21.8714 20.0564 20.1925 21.4083 17.9593C22.7603 15.726 23.2728 13.0843 22.854 10.5075C22.4352 7.93068 21.1124 5.58723 19.1228 3.89709C17.1331 2.20694 14.6066 1.28056 11.996 1.28394Z" fill="url(#paint0_linear_239_23)"/>
<defs>
<linearGradient id="paint0_linear_239_23" x1="11.9985" y1="1.28394" x2="11.9985" y2="22.7158" gradientUnits="userSpaceOnUse">
<stop stop-color="#A05CE5"/>
<stop offset="1" stop-color="#843DCC"/>
</linearGradient>
</defs>
</svg>
