<svg width="28" height="28" viewBox="0 0 28 28" fill="none" xmlns="http://www.w3.org/2000/svg">
<path fill-rule="evenodd" clip-rule="evenodd" d="M3.18182 6.36364C4.02569 6.36364 4.835 6.02841 5.4317 5.4317C6.02841 4.835 6.36364 4.02569 6.36364 3.18182C6.36364 2.33795 6.02841 1.52864 5.4317 0.931933C4.835 0.335226 4.02569 0 3.18182 0C2.33795 0 1.52864 0.335226 0.931933 0.931933C0.335226 1.52864 0 2.33795 0 3.18182C0 4.02569 0.335226 4.835 0.931933 5.4317C1.52864 6.02841 2.33795 6.36364 3.18182 6.36364ZM6.36364 28V8.90909H0V28H6.36364ZM8.90909 8.90909H14.6364V11.3858C15.5476 10.1882 17.4949 8.90909 21 8.90909C26.5109 8.90909 28 14.4073 28 17.8182V28H21.6364V17.8182C21.6364 16.5455 21 14 18.4545 14C16.6473 14 15.3745 15.2829 14.6364 16.4831V28H8.90909V8.90909Z" fill="url(#paint0_linear_1409_246)"/>
<defs>
<linearGradient id="paint0_linear_1409_246" x1="14" y1="0" x2="14" y2="28" gradientUnits="userSpaceOnUse">
<stop stop-color="#6DF2F2"/>
<stop offset="1" stop-color="#4CD9D9"/>
</linearGradient>
</defs>
</svg>
