<svg width="12" height="12" viewBox="0 0 12 12" fill="none" xmlns="http://www.w3.org/2000/svg">
<g clip-path="url(#clip0_329_11)">
<path fill-rule="evenodd" clip-rule="evenodd" d="M6.57511 2.35116L5.74883 3.17745C5.58717 3.33358 5.37065 3.41998 5.14591 3.41802C4.92117 3.41607 4.70619 3.32593 4.54727 3.167C4.38835 3.00808 4.2982 2.7931 4.29625 2.56836C4.2943 2.34362 4.38069 2.1271 4.53683 1.96545L5.36311 1.1383C6.09227 0.409147 7.08122 -0.000488292 8.1124 -0.000488281C9.14358 -0.00048827 10.1325 0.409147 10.8617 1.1383C11.5908 1.86746 12.0005 2.85641 12.0005 3.88759C12.0005 4.91877 11.5908 5.90772 10.8617 6.63687L10.0345 7.46316C9.95547 7.54503 9.86089 7.61033 9.75632 7.65525C9.65174 7.70017 9.53927 7.72381 9.42546 7.7248C9.31165 7.72579 9.19878 7.7041 9.09344 7.66101C8.9881 7.61791 8.8924 7.55426 8.81192 7.47378C8.73144 7.3933 8.66779 7.2976 8.62469 7.19226C8.5816 7.08692 8.55991 6.97406 8.5609 6.86024C8.56189 6.74643 8.58553 6.63396 8.63045 6.52938C8.67538 6.42481 8.74068 6.33023 8.82254 6.25116L9.64883 5.42402C10.0374 5.01273 10.2503 4.46613 10.2423 3.90037C10.2342 3.3346 10.0059 2.79427 9.60581 2.39418C9.20572 1.99408 8.66538 1.76576 8.09962 1.75773C7.53386 1.7497 6.98726 1.96259 6.57597 2.35116H6.57511ZM3.1774 4.53687C3.33809 4.69761 3.42836 4.91559 3.42836 5.14287C3.42836 5.37016 3.33809 5.58814 3.1774 5.74887L2.35111 6.57602C1.96254 6.98731 1.74965 7.53391 1.75768 8.09967C1.76572 8.66543 1.99404 9.20576 2.39413 9.60586C2.79422 10.006 3.33456 10.2343 3.90032 10.2423C4.46608 10.2503 5.01268 10.0374 5.42397 9.64887L6.25111 8.82259C6.41277 8.66645 6.62929 8.58006 6.85403 8.58201C7.07877 8.58396 7.29375 8.67411 7.45267 8.83303C7.61159 8.99195 7.70174 9.20693 7.70369 9.43167C7.70564 9.65641 7.61925 9.87293 7.46311 10.0346L6.63683 10.8609C5.90511 11.5771 4.92041 11.9758 3.89652 11.9703C2.87263 11.9649 1.89222 11.5558 1.16816 10.8318C0.444093 10.1079 0.0348314 9.12752 0.029233 8.10364C0.0236346 7.07975 0.422152 6.09499 1.13826 5.36316L1.9654 4.53687C2.12614 4.37618 2.34412 4.28591 2.5714 4.28591C2.79868 4.28591 3.01666 4.37618 3.1774 4.53687ZM7.89168 5.3203C8.04782 5.15864 8.13421 4.94213 8.13226 4.71739C8.13031 4.49265 8.04016 4.27767 7.88124 4.11874C7.72232 3.95982 7.50734 3.86968 7.2826 3.86772C7.05786 3.86577 6.84134 3.95217 6.67968 4.1083L4.10826 6.67973C3.95212 6.84139 3.86573 7.05791 3.86768 7.28265C3.86963 7.50739 3.95978 7.72237 4.1187 7.88129C4.27762 8.04021 4.4926 8.13036 4.71734 8.13231C4.94208 8.13426 5.1586 8.04787 5.32026 7.89173L7.89168 5.3203Z" fill="#E6E6E6"/>
</g>
<defs>
<clipPath id="clip0_329_11">
<rect width="12" height="12" fill="white"/>
</clipPath>
</defs>
</svg>
